M48
; DRILL file {KiCad 8.0.1} date 2025-06-24T15:44:07-0500
; FORMAT={-:-/ absolute / metric / decimal}
; #@! TF.CreationDate,2025-06-24T15:44:07-05:00
; #@! TF.GenerationSoftware,Kicad,Pcbnew,8.0.1
; #@! TF.FileFunction,Plated,1,2,PTH
FMAT,2
METRIC
; #@! TA.AperFunction,Plated,PTH,ComponentDrill
T1C0.500
; #@! TA.AperFunction,Plated,PTH,ComponentDrill
T2C0.750
; #@! TA.AperFunction,Plated,PTH,ComponentDrill
T3C0.800
; #@! TA.AperFunction,Plated,PTH,ComponentDrill
T4C0.900
; #@! TA.AperFunction,Plated,PTH,ComponentDrill
T5C0.962
; #@! TA.AperFunction,Plated,PTH,ComponentDrill
T6C1.000
; #@! TA.AperFunction,Plated,PTH,ComponentDrill
T7C1.100
; #@! TA.AperFunction,Plated,PTH,ComponentDrill
T8C1.500
; #@! TA.AperFunction,Plated,PTH,ComponentDrill
T9C1.600
; #@! TA.AperFunction,Plated,PTH,ComponentDrill
T10C1.800
%
G90
G05
T1
X162.19Y-105.12
X162.19Y-107.66
T2
X120.75Y-84.94
X120.75Y-92.56
T3
X112.95Y-92.77
X112.95Y-95.31
X112.95Y-97.85
X123.2Y-104.93
X123.2Y-109.83
X128.15Y-67.897
X128.15Y-70.397
X129.6Y-85.15
X129.6Y-87.69
X129.6Y-90.23
X129.6Y-92.77
X129.6Y-95.31
X129.6Y-97.85
X129.6Y-100.39
X129.6Y-102.93
X129.6Y-105.47
X129.6Y-108.01
X129.6Y-110.55
X129.6Y-113.09
X129.6Y-115.63
X129.6Y-118.17
X137.22Y-85.15
X137.22Y-87.69
X137.22Y-90.23
X137.22Y-92.77
X137.22Y-95.31
X137.22Y-97.85
X137.22Y-100.39
X137.22Y-102.93
X137.22Y-105.47
X137.22Y-108.01
X137.22Y-110.55
X137.22Y-113.09
X137.22Y-115.63
X137.22Y-118.17
X138.45Y-67.897
X138.45Y-70.397
T4
X125.15Y-82.685
X125.15Y-85.225
X147.35Y-133.04
X147.35Y-140.66
T5
X143.31Y-113.15
X143.31Y-115.69
X143.31Y-118.23
X143.31Y-120.77
X143.31Y-123.31
X143.31Y-125.85
T6
X129.63Y-77.025
X132.17Y-77.025
X134.71Y-77.025
X137.25Y-77.025
X137.85Y-133.6
X137.85Y-141.2
X139.79Y-77.025
X150.64Y-100.03
X150.64Y-102.57
X150.64Y-105.11
X150.64Y-107.65
X158.26Y-100.03
X158.26Y-102.57
X158.26Y-105.11
X158.26Y-107.65
T7
X121.31Y-124.132
X123.85Y-124.132
X126.39Y-124.132
X146.032Y-59.81
X146.032Y-62.35
X146.032Y-64.89
X152.75Y-132.94
X152.75Y-140.56
X157.8Y-135.0
X157.8Y-139.5
X164.3Y-135.0
X164.3Y-139.5
T8
X166.05Y-79.512
X166.05Y-100.002
T9
X118.13Y-60.75
X133.37Y-60.75
T10
X112.075Y-72.07
X112.075Y-76.03
X112.075Y-124.07
X112.075Y-128.03
M30
