%TF.GenerationSoftware,KiCad,Pcbnew,8.0.1*%
%TF.CreationDate,2025-06-24T15:43:57-05:00*%
%TF.ProjectId,balizaSR30,62616c69-7a61-4535-9233-302e6b696361,rev?*%
%TF.SameCoordinates,Original*%
%TF.FileFunction,Copper,L1,Top*%
%TF.FilePolarity,Positive*%
%FSLAX46Y46*%
G04 Gerber Fmt 4.6, Leading zero omitted, Abs format (unit mm)*
G04 Created by KiCad (PCBNEW 8.0.1) date 2025-06-24 15:43:57*
%MOMM*%
%LPD*%
G01*
G04 APERTURE LIST*
G04 Aperture macros list*
%AMRoundRect*
0 Rectangle with rounded corners*
0 $1 Rounding radius*
0 $2 $3 $4 $5 $6 $7 $8 $9 X,Y pos of 4 corners*
0 Add a 4 corners polygon primitive as box body*
4,1,4,$2,$3,$4,$5,$6,$7,$8,$9,$2,$3,0*
0 Add four circle primitives for the rounded corners*
1,1,$1+$1,$2,$3*
1,1,$1+$1,$4,$5*
1,1,$1+$1,$6,$7*
1,1,$1+$1,$8,$9*
0 Add four rect primitives between the rounded corners*
20,1,$1+$1,$2,$3,$4,$5,0*
20,1,$1+$1,$4,$5,$6,$7,0*
20,1,$1+$1,$6,$7,$8,$9,0*
20,1,$1+$1,$8,$9,$2,$3,0*%
G04 Aperture macros list end*
%TA.AperFunction,ComponentPad*%
%ADD10O,3.524000X1.524000*%
%TD*%
%TA.AperFunction,ComponentPad*%
%ADD11R,1.500000X2.500000*%
%TD*%
%TA.AperFunction,ComponentPad*%
%ADD12O,1.500000X2.500000*%
%TD*%
%TA.AperFunction,ComponentPad*%
%ADD13R,3.000000X1.905000*%
%TD*%
%TA.AperFunction,ComponentPad*%
%ADD14O,3.000000X1.905000*%
%TD*%
%TA.AperFunction,ComponentPad*%
%ADD15R,1.800000X1.800000*%
%TD*%
%TA.AperFunction,ComponentPad*%
%ADD16C,1.800000*%
%TD*%
%TA.AperFunction,ComponentPad*%
%ADD17R,2.500000X1.500000*%
%TD*%
%TA.AperFunction,ComponentPad*%
%ADD18O,2.500000X1.500000*%
%TD*%
%TA.AperFunction,ComponentPad*%
%ADD19R,2.600000X1.600000*%
%TD*%
%TA.AperFunction,ComponentPad*%
%ADD20O,2.600000X1.600000*%
%TD*%
%TA.AperFunction,ComponentPad*%
%ADD21R,1.800000X2.800000*%
%TD*%
%TA.AperFunction,ComponentPad*%
%ADD22O,1.800000X2.800000*%
%TD*%
%TA.AperFunction,ComponentPad*%
%ADD23RoundRect,0.250000X1.850000X-1.330000X1.850000X1.330000X-1.850000X1.330000X-1.850000X-1.330000X0*%
%TD*%
%TA.AperFunction,ComponentPad*%
%ADD24O,4.200000X3.160000*%
%TD*%
%TA.AperFunction,ComponentPad*%
%ADD25O,2.000000X1.000000*%
%TD*%
%TA.AperFunction,ComponentPad*%
%ADD26R,4.200000X3.200000*%
%TD*%
%TA.AperFunction,ComponentPad*%
%ADD27O,4.200000X3.200000*%
%TD*%
%TA.AperFunction,ComponentPad*%
%ADD28R,3.000000X4.000000*%
%TD*%
%TA.AperFunction,ComponentPad*%
%ADD29C,4.000000*%
%TD*%
%TA.AperFunction,ComponentPad*%
%ADD30R,1.700000X2.700000*%
%TD*%
%TA.AperFunction,ComponentPad*%
%ADD31O,1.700000X2.700000*%
%TD*%
%TA.AperFunction,ComponentPad*%
%ADD32R,2.200000X3.200000*%
%TD*%
%TA.AperFunction,ComponentPad*%
%ADD33O,2.200000X3.200000*%
%TD*%
%TA.AperFunction,ComponentPad*%
%ADD34O,3.000000X2.000000*%
%TD*%
%TA.AperFunction,ComponentPad*%
%ADD35R,1.905000X3.000000*%
%TD*%
%TA.AperFunction,ComponentPad*%
%ADD36O,1.905000X3.000000*%
%TD*%
%TA.AperFunction,ComponentPad*%
%ADD37R,3.000000X2.000000*%
%TD*%
G04 APERTURE END LIST*
D10*
%TO.P,U2,1,STATE*%
%TO.N,unconnected-(U2-STATE-Pad1)*%
X143310000Y-113150000D03*
%TO.P,U2,2,RXD*%
%TO.N,MCU_TX*%
X143310000Y-115690000D03*
%TO.P,U2,3,TXD*%
%TO.N,MCU_RX*%
X143310000Y-118230000D03*
%TO.P,U2,4,GND*%
%TO.N,GND*%
X143310000Y-120770000D03*
%TO.P,U2,5,VCC*%
%TO.N,+5V*%
X143310000Y-123310000D03*
%TO.P,U2,6,EN*%
%TO.N,unconnected-(U2-EN-Pad6)*%
X143310000Y-125850000D03*
%TD*%
D11*
%TO.P,D5,1,K*%
%TO.N,S_VOLT*%
X120750000Y-84940000D03*
D12*
%TO.P,D5,2,A*%
%TO.N,GND*%
X120750000Y-92560000D03*
%TD*%
D13*
%TO.P,U3,1,VI*%
%TO.N,VCC*%
X146032500Y-59810000D03*
D14*
%TO.P,U3,2,GND*%
%TO.N,GND*%
X146032500Y-62350000D03*
%TO.P,U3,3,VO*%
%TO.N,+5V*%
X146032500Y-64890000D03*
%TD*%
D15*
%TO.P,D1,1,K*%
%TO.N,LED_LIVE*%
X125150000Y-85225000D03*
D16*
%TO.P,D1,2,A*%
%TO.N,Net-(D1-A)*%
X125150000Y-82685000D03*
%TD*%
D17*
%TO.P,U5,1,+VS*%
%TO.N,+5V*%
X112950000Y-97850000D03*
D18*
%TO.P,U5,2,Vout*%
%TO.N,S_TEMP*%
X112950000Y-95310000D03*
%TO.P,U5,3,GND*%
%TO.N,GND*%
X112950000Y-92770000D03*
%TD*%
D19*
%TO.P,C3,1*%
%TO.N,VCC*%
X128150000Y-67897349D03*
D20*
%TO.P,C3,2*%
%TO.N,GND*%
X128150000Y-70397349D03*
%TD*%
D21*
%TO.P,D4,1,K*%
%TO.N,Net-(BZ1--)*%
X147350000Y-140660000D03*
D22*
%TO.P,D4,2,A*%
%TO.N,Net-(BZ1-+)*%
X147350000Y-133040000D03*
%TD*%
D23*
%TO.P,J2,1,Pin_1*%
%TO.N,+12V*%
X112075000Y-76030000D03*
D24*
%TO.P,J2,2,Pin_2*%
%TO.N,GND*%
X112075000Y-72070000D03*
%TD*%
D25*
%TO.P,Y2,1,1*%
%TO.N,Net-(U4-X1)*%
X162190000Y-107660000D03*
%TO.P,Y2,2,2*%
%TO.N,Net-(U4-X2)*%
X162190000Y-105120000D03*
%TD*%
D26*
%TO.P,D3,1,K*%
%TO.N,VCC*%
X133370000Y-60750000D03*
D27*
%TO.P,D3,2,A*%
%TO.N,+12V*%
X118130000Y-60750000D03*
%TD*%
D28*
%TO.P,BT1,1,+*%
%TO.N,+3V3*%
X166050000Y-100002417D03*
D29*
%TO.P,BT1,2,-*%
%TO.N,GND*%
X166050000Y-79512417D03*
%TD*%
D30*
%TO.P,J1,1,Pin_1*%
%TO.N,MCLR*%
X129630000Y-77025000D03*
D31*
%TO.P,J1,2,Pin_2*%
%TO.N,+5V*%
X132170000Y-77025000D03*
%TO.P,J1,3,Pin_3*%
%TO.N,GND*%
X134710000Y-77025000D03*
%TO.P,J1,4,Pin_4*%
%TO.N,PGD*%
X137250000Y-77025000D03*
%TO.P,J1,5,Pin_5*%
%TO.N,PGC*%
X139790000Y-77025000D03*
%TD*%
D19*
%TO.P,U4,1,X1*%
%TO.N,Net-(U4-X1)*%
X158260000Y-107650000D03*
D20*
%TO.P,U4,2,X2*%
%TO.N,Net-(U4-X2)*%
X158260000Y-105110000D03*
%TO.P,U4,3,VBAT*%
%TO.N,+3V3*%
X158260000Y-102570000D03*
%TO.P,U4,4,GND*%
%TO.N,GND*%
X158260000Y-100030000D03*
%TO.P,U4,5,SDA*%
%TO.N,SDA*%
X150640000Y-100030000D03*
%TO.P,U4,6,SCL*%
%TO.N,SCL*%
X150640000Y-102570000D03*
%TO.P,U4,7,SQW/OUT*%
%TO.N,unconnected-(U4-SQW{slash}OUT-Pad7)*%
X150640000Y-105110000D03*
%TO.P,U4,8,VCC*%
%TO.N,+5V*%
X150640000Y-107650000D03*
%TD*%
D19*
%TO.P,C4,1*%
%TO.N,+5V*%
X138450000Y-67897349D03*
D20*
%TO.P,C4,2*%
%TO.N,GND*%
X138450000Y-70397349D03*
%TD*%
D32*
%TO.P,D2,1,K*%
%TO.N,Net-(D2-K)*%
X152750000Y-140560000D03*
D33*
%TO.P,D2,2,A*%
%TO.N,BUTTON*%
X152750000Y-132940000D03*
%TD*%
D19*
%TO.P,U1,1,Vpp/~{MCLR}/RE3*%
%TO.N,MCLR*%
X129600000Y-85150000D03*
D20*
%TO.P,U1,2,RA0/AN0*%
%TO.N,LED_LIVE*%
X129600000Y-87690000D03*
%TO.P,U1,3,RA1/AN1*%
%TO.N,S_VOLT*%
X129600000Y-90230000D03*
%TO.P,U1,4,RA2/AN2/Vref-/CVref*%
%TO.N,unconnected-(U1-RA2{slash}AN2{slash}Vref-{slash}CVref-Pad4)*%
X129600000Y-92770000D03*
%TO.P,U1,5,RA3/AN3/Vref+*%
%TO.N,S_TEMP*%
X129600000Y-95310000D03*
%TO.P,U1,6,RA4/T0CKI/C1OUT/RCV*%
%TO.N,+5V*%
X129600000Y-97850000D03*
%TO.P,U1,7,RA5/AN4/~{SS}/HLVDIN/C2OUT*%
%TO.N,GND*%
X129600000Y-100390000D03*
%TO.P,U1,8,VSS*%
X129600000Y-102930000D03*
%TO.P,U1,9,OSC1/CLKI*%
%TO.N,OSC1*%
X129600000Y-105470000D03*
%TO.P,U1,10,RA6/OSC2/CLKO*%
%TO.N,OSC2*%
X129600000Y-108010000D03*
%TO.P,U1,11,T1OSO/T13CKI/RC0*%
%TO.N,BUTTON*%
X129600000Y-110550000D03*
%TO.P,U1,12,~{UOE}/CCP2/T1OSI/RC1*%
%TO.N,BUZZER*%
X129600000Y-113090000D03*
%TO.P,U1,13,CCP1/RC2*%
%TO.N,CLUSTER*%
X129600000Y-115630000D03*
%TO.P,U1,14,VUSB*%
%TO.N,unconnected-(U1-VUSB-Pad14)*%
X129600000Y-118170000D03*
%TO.P,U1,15,VM/D-/RC4*%
%TO.N,unconnected-(U1-VM{slash}D-{slash}RC4-Pad15)*%
X137220000Y-118170000D03*
%TO.P,U1,16,VP/D+/RC5*%
%TO.N,unconnected-(U1-VP{slash}D+{slash}RC5-Pad16)*%
X137220000Y-115630000D03*
%TO.P,U1,17,TX/CK/RC6*%
%TO.N,MCU_TX*%
X137220000Y-113090000D03*
%TO.P,U1,18,SDO/RX/DT/RC7*%
%TO.N,MCU_RX*%
X137220000Y-110550000D03*
%TO.P,U1,19,VSS*%
%TO.N,GND*%
X137220000Y-108010000D03*
%TO.P,U1,20,VDD*%
%TO.N,+5V*%
X137220000Y-105470000D03*
%TO.P,U1,21,RB0/AN12/INT0/FLT0/SDI/SDA*%
%TO.N,SDA*%
X137220000Y-102930000D03*
%TO.P,U1,22,RB1/AN10/INT1/SCK/SCL*%
%TO.N,SCL*%
X137220000Y-100390000D03*
%TO.P,U1,23,RB2/AN8/INT2/VMO*%
%TO.N,unconnected-(U1-RB2{slash}AN8{slash}INT2{slash}VMO-Pad23)*%
X137220000Y-97850000D03*
%TO.P,U1,24,RB3/AN9/CCP2/VPO*%
%TO.N,unconnected-(U1-RB3{slash}AN9{slash}CCP2{slash}VPO-Pad24)*%
X137220000Y-95310000D03*
%TO.P,U1,25,RB4/AN11/KBI0*%
%TO.N,unconnected-(U1-RB4{slash}AN11{slash}KBI0-Pad25)*%
X137220000Y-92770000D03*
%TO.P,U1,26,RB5/KBI1/PGM*%
%TO.N,unconnected-(U1-RB5{slash}KBI1{slash}PGM-Pad26)*%
X137220000Y-90230000D03*
%TO.P,U1,27,RB6/KBI2/PGC*%
%TO.N,PGC*%
X137220000Y-87690000D03*
%TO.P,U1,28,RB7/KBI3/PGD*%
%TO.N,PGD*%
X137220000Y-85150000D03*
%TD*%
D34*
%TO.P,SW1,1,1*%
%TO.N,GND*%
X164300000Y-139500000D03*
X157800000Y-139500000D03*
%TO.P,SW1,2,2*%
%TO.N,Net-(D2-K)*%
X164300000Y-135000000D03*
X157800000Y-135000000D03*
%TD*%
D18*
%TO.P,Y1,1,1*%
%TO.N,OSC1*%
X123200000Y-104930000D03*
%TO.P,Y1,2,2*%
%TO.N,OSC2*%
X123200000Y-109830000D03*
%TD*%
D35*
%TO.P,Q2,1,G*%
%TO.N,Net-(Q2-G)*%
X126390000Y-124132500D03*
D36*
%TO.P,Q2,2,D*%
%TO.N,Net-(Q2-D)*%
X123850000Y-124132500D03*
%TO.P,Q2,3,S*%
%TO.N,GND*%
X121310000Y-124132500D03*
%TD*%
D37*
%TO.P,BZ1,1,-*%
%TO.N,Net-(BZ1--)*%
X137850000Y-141200000D03*
D34*
%TO.P,BZ1,2,+*%
%TO.N,Net-(BZ1-+)*%
X137850000Y-133600000D03*
%TD*%
D23*
%TO.P,J3,1,Pin_1*%
%TO.N,+12V*%
X112075000Y-128030000D03*
D24*
%TO.P,J3,2,Pin_2*%
%TO.N,Net-(J3-Pin_2)*%
X112075000Y-124070000D03*
%TD*%
M02*
